<svg xmlns="http://www.w3.org/2000/svg" width="736.142" height="734.623" viewBox="0 0 736.142 734.623"><defs><style>.a{fill:#dfe0e3;}.b{fill:#f6f6f6;}.c,.e{fill:#e2e9fb;}.ar,.bg,.c,.m{mix-blend-mode:multiply;isolation:isolate;}.d{fill:#163759;}.f{fill:#042144;}.g{fill:#d7d5e0;}.h{fill:#0db739;}.i{fill:#f39200;}.ag,.j{fill:#fff;}.k{fill:#0e902b;}.ap,.as,.bc,.bh,.bj,.l{fill:none;stroke:#fff;}.ap,.as,.bh,.bj,.l{stroke-linecap:round;stroke-linejoin:round;}.l{stroke-width:0.203px;}.bg,.m,.t{fill:#a8c4e5;}.m,.y{opacity:0.4;}.n{fill:#683c11;}.o{fill:#c6d2f2;}.p{fill:#ffc2b0;}.q{fill:#91accc;}.r{fill:#9ebbde;}.s{fill:#6f9ed9;}.u{fill:#e1eaf4;}.v{fill:#c6c6c6;}.w{fill:#f09a82;}.x{fill:#21ded5;}.y{fill:#005156;}.z{fill:#c4cacd;}.aa{fill:#aaafb1;}.ab{fill:#d6dfe4;}.ac{fill:#f1f4f6;}.ad{fill:#dcdfe1;}.ae{fill:#374661;}.af{fill:#e0dbd8;}.ag{opacity:0.2;}.ah{fill:#cacccd;}.ai{fill:#808a8c;}.aj{fill:#59516d;}.ak{fill:#38343f;}.al{fill:#5a516d;}.am{fill:#eff2f5;}.an{fill:#474257;}.ao{fill:#ededed;}.ap{stroke-width:0.255px;}.aq{fill:#ffc605;}.ar{fill:#2c1f9c;opacity:0.22;}.as{stroke-width:0.543px;}.at{fill:#432918;}.au{fill:#f9b233;}.av{fill:#9ec2ff;}.aw{fill:#dadada;}.ax{fill:#1ea13e;}.ay{fill:#0e7f2b;}.az{fill:#bad4f5;}.ba{fill:#e655be;}.bb{fill:#bfdfff;}.bc{stroke-miterlimit:10;stroke-width:0.451px;}.bd{fill:#cfe3ff;}.be{fill:#b6ceed;}.bf{fill:#dbefff;}.bg{opacity:0.29;}.bh{stroke-width:1.855px;}.bi{fill:#a5a5a5;}.bj{stroke-width:2.329px;}.bk{fill:#f18c05;}.bl{fill:#ea5b0c;}.bm{fill:#26345c;}</style></defs><g transform="translate(0 0)"><path class="a" d="M249.975-2775.346-102.91-2569.111a7.764,7.764,0,0,1-8.024.018L-465.788-2773.5a7.77,7.77,0,0,1,.142-13.41l363.33-207.615a7.771,7.771,0,0,1,8.059.208l344.41,205.786A7.774,7.774,0,0,1,249.975-2775.346Z" transform="translate(469.562 3302.608)"></path><path class="b" d="M249.975-2780.816-102.91-2574.582a7.775,7.775,0,0,1-8.024.017l-354.855-204.411a7.77,7.77,0,0,1,.142-13.41L-102.317-3000a7.77,7.77,0,0,1,8.059.208L250.152-2794A7.774,7.774,0,0,1,249.975-2780.816Z" transform="translate(469.562 3283.862)"></path><g transform="translate(187.519 505.837)"><path class="c" d="M-290.084-2946.193a9.486,9.486,0,0,0-9.511.013l-119.751,68.261a4.747,4.747,0,0,0,.013,8.21l43.527,25.24-4.709,6.125H-367.2a27.017,27.017,0,0,0,13.437-3.589l112.493-63.739a6.984,6.984,0,0,0,.035-12.09Z" transform="translate(445.995 2961.511)"></path><path class="d" d="M-420.741-2864.354l49.635,28.74a18.871,18.871,0,0,0,18.88.049l107.009-62.267,6.873-4c9-6.1,7.462-17.726,1.947-22.112-.027-.049-.049-.076-.075-.076a3.331,3.331,0,0,0-.412-.255l-50.568-22.24a18.987,18.987,0,0,0-18.9.054l-70.294,34.241-44.735,24.854C-427.951-2883.9-430.464-2870.923-420.741-2864.354Z" transform="translate(427.191 2956.229)"></path><path class="e" d="M-419.883-2864.686l47.258,27.373a18.973,18.973,0,0,0,18.871.048l112.095-64.876c9.263-4.97,8.365-13.964,2-17.584l-49.431-28.347a18.7,18.7,0,0,0-18.756-.089l-114.414,65.713C-428.562-2878.8-428.632-2869.262-419.883-2864.686Z" transform="translate(428.705 2950.639)"></path><path class="f" d="M-419.737-2865.921l46.576,26.979a18.694,18.694,0,0,0,18.6.043l110.488-63.942c9.126-4.9,8.422-14.136,2.147-17.7l-48.9-27.568a18.439,18.439,0,0,0-18.486-.083l-112.763,64.766C-428.292-2879.836-428.362-2870.431-419.737-2865.921Z" transform="translate(429.541 2950.638)"></path><path class="g" d="M-320.253-2948.682l-24.006,13.822-79.85,45.973,64.181,37.046,15.669-9.047,88-50.806Z" transform="translate(437.75 2957.341)"></path></g><g transform="translate(58.563 77.905)"><path class="h" d="M-357.171-3047.33l-99.157,58.84v10.084l116.158-68.924Z" transform="translate(456.333 3047.33)"></path><path class="h" d="M-456.329-2910.1v10.087l131.3-77.916v-10.086Z" transform="translate(456.329 3250.528)"></path><path class="h" d="M-456.329-2941.92v10.093l131.3-77.915v-10.086Z" transform="translate(456.329 3141.55)"></path><path class="h" d="M-436.261-3047.33l-20.067,11.914v10.083l37.063-22Z" transform="translate(456.332 3047.33)"></path><path class="h" d="M-456.329-2920.7v10.085l131.3-77.916v-10.086Z" transform="translate(456.329 3214.201)"></path><path class="h" d="M-456.329-2952.524v10.1l131.3-77.916v-10.088Z" transform="translate(456.329 3105.223)"></path><path class="h" d="M-435.038-2944.818h17l20.068-11.911v-10.078Z" transform="translate(529.269 3323.187)"></path><path class="h" d="M-456.329-2931.312v10.086l131.3-77.912v-10.085Z" transform="translate(456.329 3177.875)"></path><path class="h" d="M-456.329-2963.127v10.09l131.3-77.916v-10.083Z" transform="translate(456.329 3068.898)"></path><path class="h" d="M-452.906-2908.49h16.989l99.16-58.842v-10.079Z" transform="translate(468.056 3286.859)"></path></g><path class="f" d="M-329.9-3026.2l15.946-12.819,49.2,75.645-15.32,12.424Z" transform="translate(948.007 3153.695)"></path><ellipse class="f" cx="26.135" cy="45.269" rx="26.135" ry="45.269" transform="translate(612.308 127.347) rotate(-30.311)"></ellipse><path class="i" d="M-285.887-3020.575c0,12.92-5.262,21.585-21.89,30.967,0,0-3.744-8.916-10.219-12.656C-335.73-3012.506-285.887-3040.924-285.887-3020.575Z" transform="translate(975.714 3192.35)"></path><g transform="translate(142.759 133.068)"><path class="a" d="M-436.622-2972.428c-.093-6.453,2.947-12.268,7.975-15.256l77.879-46.3c4.262-2.536,7.825.562,7.918,6.881l.81,56.658a15.953,15.953,0,0,1-7.4,14.145l-71.533,42.527c-6.528,3.881-14.84-1.744-14.959-10.126Z" transform="translate(439.636 3034.867)"></path><g transform="translate(7.04 42.731)"><g transform="translate(0 0)"><ellipse class="j" cx="26.032" cy="14.585" rx="26.032" ry="14.585" transform="translate(0 47.468) rotate(-65.747)"></ellipse></g></g><path class="k" d="M-415.928-2999.369a3.7,3.7,0,0,0,1.531-3.429c-.252-2.982-1.81-4.174-2.952-4.223-.46-.017-.934.1-1.4.1-.261,0-.522,0-.788.019h0l-.027,0a4.005,4.005,0,0,0-.611.079l-.075.014v.012l-.305.045,0,.009-.323-.187c-.031-.017-.146-.124-.155-.08,0-.061.009-.162.009-.211l.04-1.842,0-.022a7.436,7.436,0,0,0,.624-1.576,8.735,8.735,0,0,0,.217-1.19c.7-.5.907-1.823,1-2.7.075-.709.2-2.443-.536-1.957.013-.106.026-.207.044-.3a11.983,11.983,0,0,0,.2-1.765,2.864,2.864,0,0,0-.27-1.431c-.066-.119-.168-.212-.3-.146a1.51,1.51,0,0,0,.08-.509,1.27,1.27,0,0,0-1.62-1.385,4.952,4.952,0,0,0-2.868,1.452,9.181,9.181,0,0,0-2.292,4.148,2.352,2.352,0,0,0-.089.65,1.657,1.657,0,0,0-.19.407,5.34,5.34,0,0,0-.274,1.77,7.715,7.715,0,0,0,.186,1.523c.018.074.031.164.044.253-.6.535-.513,1.982-.456,2.553.08.809.27,1.951,1.044,1.438a2.334,2.334,0,0,0,.876,1.78l-.04,1.788c0,.088,0,.191,0,.284a1.332,1.332,0,0,1-.119.167l-.514.739-1.146,1.372h0c-.186.213-.381.429-.566.646-.571.651-1.155,1.323-1.607,1.8a9.224,9.224,0,0,0-1.332,1.647h0a17,17,0,0,0-1.341,4.275c-.394,1.872,1.465,3.433,2.952,2.486Zm-11.379-9.749-.022-.2Z" transform="translate(454.498 3078.723)"></path><g transform="translate(56.632 33.114)"><path class="j" d="M-424.509-3012.432l23.94-14.953.143,9.084-23.94,14.953Z" transform="translate(424.509 3027.385)"></path></g><g transform="translate(57.203 43.535)"><path class="j" d="M-388.055-3025.031l.143,9.084-36.324,22.688-.143-9.084Z" transform="translate(424.38 3025.031)"></path></g><ellipse class="l" cx="32.762" cy="18.872" rx="32.762" ry="18.872" transform="translate(0 95.606) rotate(-66.011)"></ellipse></g><g transform="translate(201.203 217.91)"><ellipse class="m" cx="9.811" cy="19.749" rx="9.811" ry="19.749" transform="matrix(0.018, -1, 1, 0.018, 12.065, 169.532)"></ellipse><path class="n" d="M-413.238-2965.917l.412-10.245c-.168-2.39-1.691-2.878-2.992-3.979a1.625,1.625,0,0,0-2.045-.026l-1.3,1.013c-1.934,1.394-1.708,3.983-1.354,5.63l1.4,9.081C-418.765-2962.8-413.689-2960.421-413.238-2965.917Z" transform="translate(435.554 3136.214)"></path><path class="o" d="M-420.553-2974.143c0,2.435,5.922,2.435,5.922,0v-7.911h-5.922Z" transform="translate(436.248 3130.939)"></path><path class="n" d="M-401.232-2973.81l-8.241-8.162a10.344,10.344,0,0,0-5.284-.687,1.619,1.619,0,0,0-1.385,1.5l-.124,1.646c-.257,2.368-.044,2.712,1.416,3.555l8.666,5a5.53,5.53,0,0,0,4.952.2l.359-.2C-399.612-2971.681-399.771-2972.969-401.232-2973.81Z" transform="translate(450.616 3128.616)"></path><path class="o" d="M-416.158-2976.5c0,2.433,5.922,2.433,5.922,0v-7.914h-5.922Z" transform="translate(451.305 3122.852)"></path><path class="f" d="M-412.479-2922.09c2.319,1.669,6.156,1.628,7.44-.31a382.522,382.522,0,0,0,5.979-73.1l-18.4-5.456C-414.182-2971.22-410.261-2944.909-412.479-2922.09Z" transform="translate(446.837 3066.191)"></path><path class="f" d="M-419.455-2917.678c1.872,2.789,6.112,2.806,7.36.792L-399.7-3000h-21.376Z" transform="translate(434.46 3069.453)"></path><path class="f" d="M-416.873-2989.293l1.062,7.488,4.089-15.889a24.629,24.629,0,0,1-2.943.568Z" transform="translate(448.855 3077.369)"></path><path class="p" d="M-405.031-3000.155l-11.042,22.222c-.553,1.2-2.443,22.624-2.443,22.624l-5.514-3.226s1.673-23.687,2.009-24.882l6.621-23.389Z" transform="translate(424.334 3046.154)"></path><rect class="p" width="5.846" height="7.954" rx="0.66" transform="translate(6.834 91.181) rotate(172.501)"></rect><path class="p" d="M-410.271-3007.887l7.1,11.569c1.3,2.561,4.12,7.236,5.067,12.542l9.661-3.792-.341,2.668-12.795,5.664c1.111-6.178-2.678-6.66-4.833-9.267-3.788-4.571-7.546-9.134-7.586-9.333C-414.055-2998.15-410.271-3007.887-410.271-3007.887Z" transform="translate(458.717 3042.451)"></path><path class="q" d="M-411.7-3010.1l8.325,15.605c-1.359,5.43-4.3,8.2-8.019,9.653l-3.156-21.107Z" transform="translate(456.817 3034.88)"></path><path class="r" d="M-383.954-2962.325a97.146,97.146,0,0,1-.664-29.529c0-16.064-6.068-22.013-16.189-18.318l-4.182,1.111c-12.215,6.582-18.42,6.249-16.234,19.177l2.138,28.339C-419.085-2946.959-383.175-2945.175-383.954-2962.325Z" transform="translate(432.471 3030.994)"></path><path class="s" d="M-414.574-3005.3l-5.266,21.868-.631,2.129-.774-10.54Z" transform="translate(433.877 3051.302)"></path><path class="n" d="M-409.283-2998.888a8.633,8.633,0,0,1-2.408,1.647c-.805.168-9.488-6.852-6.346-14.715,1.987-4.984,11.405-1.081,11.405-1.081Z" transform="translate(442.531 3019.825)"></path><path class="p" d="M-414.336-2997.6l.487.08a3.034,3.034,0,0,0,3.487-2.474l1.571-9.25a3.037,3.037,0,0,0-2.479-3.492l-.482-.08a3.033,3.033,0,0,0-3.492,2.474l-2.815,8.666C-418.337-3000.033-415.978-2997.88-414.336-2997.6Z" transform="translate(444.717 3025.415)"></path><path class="r" d="M-405.24-2994.6l-6.1,17.3c-.867,1.341-13.352-4.975-12.286-7.037.186-.367,6.833-21.266,13.981-24.642C-403.842-3011.715-402.031-3002.482-405.24-2994.6Z" transform="translate(425.49 3037.033)"></path><path class="t" d="M-414.407-2993.907l2.346-.827.279-.279.177-.314,17.681-9.193a.906.906,0,0,1,.783.032l6.754,3.956.009-.109,1.275.508-.058.526h-.009a.309.309,0,0,1-.142.138l-18.4,9.569a.1.1,0,0,0-.044.07c-.385,1.408-1.027,2.669-2.231,1.939l-7.475-4.409a1.794,1.794,0,0,1-.943-1.605Z" transform="translate(457.303 3053.725)"></path><path class="u" d="M-404.345-2987.85l21.19-11.016c.243-.128.239-.353-.009-.5l-9.006-5.279a1.03,1.03,0,0,0-.9-.035l-21.19,11.015c-.243.129-.239.354.013.5l9,5.28A1.041,1.041,0,0,0-404.345-2987.85Z" transform="translate(457.182 3053.132)"></path><path class="t" d="M-410.4-2999.378l5.13-2.669c.058-.03.058-.083,0-.119l-2.178-1.278a.246.246,0,0,0-.217-.01l-5.129,2.669c-.062.031-.057.084,0,.119l2.182,1.28A.245.245,0,0,0-410.4-2999.378Z" transform="translate(462.647 3057.566)"></path><path class="j" d="M-409.055-2994.314a2.41,2.41,0,0,1,1.067-1.327l21.018-10.768a.527.527,0,0,1,.447-.067h0a.261.261,0,0,1,.093.075l.589.659-.593-.049-3.156,11.646a2.386,2.386,0,0,1-1.062,1.327l-19.876,10.184-.677.65-.093.159c-.389.074-1.23-.541-1.23-.541Z" transform="translate(463.75 3047.196)"></path><path class="v" d="M-411.719-2981.892l21.018-10.767a2.406,2.406,0,0,0,1.067-1.328l3.187-11.772c.137-.5-.119-.721-.571-.49l-21.018,10.768a2.414,2.414,0,0,0-1.066,1.327l-3.187,11.773C-412.427-2981.878-412.171-2981.662-411.719-2981.892Z" transform="translate(464.427 3047.74)"></path><path class="j" d="M-409.5-3001.675c-.168.624.412.765,1.3.309a3.989,3.989,0,0,0,1.9-1.951c.173-.625-.407-.766-1.292-.31A4.027,4.027,0,0,0-409.5-3001.675Z" transform="translate(473.998 3056.128)"></path><path class="w" d="M-411.141-3007.754a8.284,8.284,0,0,1-6.563-3.723s2.5,5.811,6.125,6.307Z" transform="translate(446.009 3030.152)"></path><path class="p" d="M-416.7-3000.8c.921,4.417,4.05,5.874,6.984,3.249s4.567-8.329,3.647-12.746-4.05-5.873-6.984-3.252S-417.616-3005.214-416.7-3000.8Z" transform="translate(448.585 3018.596)"></path><path class="p" d="M-417.771-3001.534c.921,4.421,5.444,6.329,8.378,3.7s4.567-8.329,3.647-12.745-4.05-5.878-6.984-3.254S-418.692-3005.951-417.771-3001.534Z" transform="translate(445.204 3017.621)"></path><path class="n" d="M-408.561-3009.52s-.451,8.359-7.258,9.1c0,0-6.616-5.47.1-12.454,5.922-6.161,12.631.419,12.631.419Z" transform="translate(442.491 3016.343)"></path><path class="x" d="M-409.609-3008.3a7.928,7.928,0,0,0-6.236-3.749l2.868-2.767S-409.4-3014.836-409.609-3008.3Z" transform="translate(452.377 3018.707)"></path><path class="n" d="M-414.239-3004.628c1.85-1.775,5.152-1.07,9.586,1.571,4.333,1.009,5.789-3.9,5.789-3.9,1.146-2.549-.416-4.058-2.97-5.2l-6.648-2.983c-3.757-1.713-8.117.876-9.267,3.43l-.257.408C-419.152-3008.753-416.793-3005.774-414.239-3004.628Z" transform="translate(443.956 3015.696)"></path><path class="p" d="M-418.151-3009.983a1.985,1.985,0,0,0,2.35,1.536,1.986,1.986,0,0,0,1.54-2.35,1.993,1.993,0,0,0-2.35-1.539A1.987,1.987,0,0,0-418.151-3009.983Z" transform="translate(444.331 3027.065)"></path><path class="n" d="M-414.449-3011.435a2.571,2.571,0,0,0,2.571,2.572,2.571,2.571,0,0,0,2.571-2.572,2.571,2.571,0,0,0-2.571-2.571A2.571,2.571,0,0,0-414.449-3011.435Z" transform="translate(457.159 3021.488)"></path><path class="n" d="M-414.406-3012.247a2.575,2.575,0,0,0,2.576,2.572,2.574,2.574,0,0,0,2.571-2.572,2.574,2.574,0,0,0-2.571-2.572A2.575,2.575,0,0,0-414.406-3012.247Z" transform="translate(457.307 3018.707)"></path><path class="n" d="M-415.208-3012.5a2.571,2.571,0,0,0,2.571,2.571,2.571,2.571,0,0,0,2.572-2.571,2.571,2.571,0,0,0-2.572-2.572A2.571,2.571,0,0,0-415.208-3012.5Z" transform="translate(454.559 3017.833)"></path><path class="n" d="M-415.208-3011.084a2.571,2.571,0,0,0,2.571,2.572,2.571,2.571,0,0,0,2.572-2.572,2.571,2.571,0,0,0-2.572-2.572A2.571,2.571,0,0,0-415.208-3011.084Z" transform="translate(454.559 3022.687)"></path><path class="n" d="M-415.936-3011.184a2.57,2.57,0,0,0,2.571,2.571,2.57,2.57,0,0,0,2.571-2.571,2.569,2.569,0,0,0-2.571-2.57A2.569,2.569,0,0,0-415.936-3011.184Z" transform="translate(452.065 3022.348)"></path></g><path class="a" d="M-12.418-2846.09l-246.632-142.4c-2.854-1.647-7.886-1.44-11.184.465l-118.185,68.231a7.406,7.406,0,0,0-1.562,1.18l-22.146,12.313c-3.3,1.9-3.66,4.811-.806,6.458L-162.092-2759.4c2.855,1.646,7.887,1.438,11.184-.465l118.184-68.232a7.223,7.223,0,0,0,1.562-1.182l17.942-10.361C-9.922-2841.541-9.564-2844.444-12.418-2846.09Z" transform="translate(656.961 3323.015)"></path><g transform="translate(248.998 99.919)"><path class="y" d="M-12.418-2928.407a5.2,5.2,0,0,0,0-1.717v-11.33h-4.244v6.82c-1.4,1.771-2.408,1.925-5.488,3.8l-141.729,77.689c-10.321,6.284-19.062,3.933-26.391-.04l-215.71-117.8c-.345-.23-.624-.406-.872-.567v-7.306H-413.3l.248,11.724c.093,3.363,3.509,6.607,8.272,9.806l214.391,116.906c7.364,3.987,16.158,6.333,26.559-.026l142.823-78.646c5.236-3.2,8.011-6.315,8.559-9.151h.031Z" transform="translate(413.3 3259.898)"></path><path class="z" d="M-12.393-2929.112a5.3,5.3,0,0,0,0-1.713v-11.334h-4.249v6.82c-1.4,1.771-2.408,1.926-5.488,3.8l-141.729,77.688c-10.316,6.284-19.062,3.935-26.391-.04l-215.71-117.8c-.345-.23-.62-.408-.872-.567v-7.307h-6.448l.248,11.723c.1,3.364,3.51,6.609,8.272,9.808l214.391,116.906c7.364,3.988,16.158,6.333,26.559-.028l142.823-78.644c5.236-3.205,8.011-6.315,8.564-9.153h.031Z" transform="translate(413.372 3257.479)"></path><path class="aa" d="M-193.85-2971.11H-198.1v6.82c-1.4,1.771-2.408,1.926-5.488,3.8L-345.316-2882.8a23.667,23.667,0,0,1-14.994,3.771v12.769a23.881,23.881,0,0,0,15.043-3.842l142.823-78.644c5.236-3.206,8.011-6.316,8.564-9.153h.031v-.164a5.293,5.293,0,0,0,0-1.713Z" transform="translate(594.829 3286.43)"></path><path class="ab" d="M-361.1-2937.656a22.4,22.4,0,0,0,10.409.146v-12.742a22.3,22.3,0,0,1-10.409-.192Z" transform="translate(592.126 3357.23)"></path><path class="ac" d="M-190.146-2782.391l-215.71-117.8c-8.342-5.607-11.056-11.171-.735-17.455l140.579-77.113c10.316-6.285,27.391-6.723,34.72-2.749l214.7,118.813c7.333,3.975,4.886,12.371-5.435,18.655l-141.729,77.689C-174.072-2776.067-182.817-2778.417-190.146-2782.391Z" transform="translate(413.366 3187.204)"></path><path class="ad" d="M-334.818-2922.211l-54.684-28.741a1.947,1.947,0,0,1,.142-3.594l37.951-20.575a7.011,7.011,0,0,1,5.174.04l53.932,29.134c1.115.576.9,2.5-.487,3.231l-37.486,20.216A5.556,5.556,0,0,1-334.818-2922.211Z" transform="translate(490.931 3271.057)"></path><path class="ad" d="M-203.639-2851.405l-185.407-103.066c-4.957-2.735-4.081-7.342,1.947-10.237l51.847-28.187c6.028-2.9,15.016-3.032,19.973-.3l186.283,103.717c4.957,2.73,4.081,7.338-1.947,10.236l-52.724,27.536C-189.693-2848.807-198.682-2848.675-203.639-2851.405Z" transform="translate(485.38 3204.038)"></path><g transform="translate(102.168 214.214)"><path class="ae" d="M-368.355-2981.045a1.833,1.833,0,0,1-1.483-.165l-11.551-6.347c-.478-.264-.6-.619-.261-.792l8.112-4.138a1.822,1.822,0,0,1,1.478.168l11.556,6.347c.478.266.593.619.257.788Z" transform="translate(418.901 2998.671)"></path><path class="ae" d="M-364.5-2978.923a1.827,1.827,0,0,1-1.482-.164l-11.551-6.347c-.482-.266-.593-.619-.257-.792l8.108-4.139a1.822,1.822,0,0,1,1.478.169l11.551,6.345c.482.267.6.621.261.789Z" transform="translate(432.129 3005.938)"></path><path class="ae" d="M-365.215-2976.28a1.834,1.834,0,0,1-1.474-.169l-11.556-6.346c-.482-.27-.593-.62-.261-.792l8.112-4.138a1.823,1.823,0,0,1,1.478.168l11.556,6.351c.478.262.589.611.252.784Z" transform="translate(429.676 3014.979)"></path><path class="ae" d="M-360.418-2976.679a1.831,1.831,0,0,1-1.483-.168l-11.556-6.346c-.478-.267-.593-.62-.252-.792l8.108-4.138a1.823,1.823,0,0,1,1.478.169l11.551,6.346c.478.266.6.619.261.793Z" transform="translate(446.091 3013.612)"></path><path class="ae" d="M-361.349-2974.152a1.864,1.864,0,0,1-1.478-.17l-11.555-6.351c-.478-.265-.6-.618-.261-.792l8.112-4.139a1.825,1.825,0,0,1,1.478.168l11.555,6.353c.478.259.6.618.261.792Z" transform="translate(442.902 3022.248)"></path><path class="ae" d="M-356.561-2974.563a1.819,1.819,0,0,1-1.483-.164l-11.551-6.347c-.478-.266-.593-.619-.252-.792l8.108-4.138a1.841,1.841,0,0,1,1.478.168l11.551,6.345c.482.271.593.621.257.788Z" transform="translate(459.318 3020.883)"></path><path class="ae" d="M-361.915-2971.593a1.853,1.853,0,0,1-1.482-.168l-11.551-6.351c-.478-.262-.6-.615-.261-.789l8.112-4.138a1.824,1.824,0,0,1,1.483.165l11.551,6.351c.478.26.6.616.261.792Z" transform="translate(440.963 3031.027)"></path><path class="ae" d="M-357.275-2971.919a1.827,1.827,0,0,1-1.474-.163l-11.556-6.352c-.478-.266-.6-.618-.266-.792l8.108-4.138a1.857,1.857,0,0,1,1.487.169l11.556,6.351c.478.261.593.614.252.788Z" transform="translate(456.863 3029.922)"></path><path class="ae" d="M-352.484-2972.319a1.833,1.833,0,0,1-1.483-.167l-11.551-6.348c-.478-.261-.593-.619-.257-.792l8.108-4.138a1.852,1.852,0,0,1,1.483.169l11.547,6.351c.483.266.6.615.261.787Z" transform="translate(473.28 3028.556)"></path><path class="ae" d="M-358.059-2969.473a1.846,1.846,0,0,1-1.478-.168l-11.547-6.352c-.482-.261-.6-.616-.261-.787l8.108-4.138a1.842,1.842,0,0,1,1.483.164l11.551,6.35c.482.265.6.615.257.788Z" transform="translate(454.191 3038.298)"></path><path class="ae" d="M-353.2-2969.675a1.864,1.864,0,0,1-1.478-.168l-11.555-6.352c-.478-.265-.593-.615-.257-.787l8.108-4.139a1.818,1.818,0,0,1,1.478.165l11.555,6.351c.478.261.6.62.261.792Z" transform="translate(470.827 3037.597)"></path><path class="ae" d="M-348.413-2970.08a1.841,1.841,0,0,1-1.478-.163l-11.551-6.351c-.478-.262-.593-.621-.257-.788l8.108-4.142a1.853,1.853,0,0,1,1.478.168l11.556,6.35c.478.266.593.616.257.788Z" transform="translate(487.243 3036.231)"></path><path class="ae" d="M-353.983-2967.233a1.833,1.833,0,0,1-1.474-.167l-11.555-6.351c-.478-.262-.6-.615-.257-.788l8.108-4.138a1.844,1.844,0,0,1,1.483.164l11.551,6.35c.478.265.593.616.252.788Z" transform="translate(468.154 3045.971)"></path><path class="ae" d="M-349.34-2967.555a1.861,1.861,0,0,1-1.478-.168l-11.551-6.351c-.478-.262-.6-.614-.266-.788l8.112-4.138a1.852,1.852,0,0,1,1.483.164l11.551,6.351c.478.266.6.616.257.793Z" transform="translate(484.054 3044.869)"></path><path class="ae" d="M-344.547-2967.958a1.824,1.824,0,0,1-1.482-.165l-11.551-6.346c-.478-.265-.593-.62-.257-.792l8.108-4.138a1.834,1.834,0,0,1,1.483.168l11.547,6.346c.482.267.6.615.261.788Z" transform="translate(500.47 3043.501)"></path><path class="ae" d="M-349.906-2964.993a1.824,1.824,0,0,1-1.478-.167l-11.551-6.347c-.482-.265-.6-.618-.261-.792l8.112-4.138a1.835,1.835,0,0,1,1.483.168l11.547,6.346c.482.265.6.621.261.793Z" transform="translate(482.115 3053.645)"></path><path class="ae" d="M-345.261-2965.315a1.826,1.826,0,0,1-1.478-.167l-11.555-6.352c-.478-.26-.6-.614-.261-.787l8.108-4.138a1.841,1.841,0,0,1,1.483.164l11.556,6.35c.478.265.6.619.257.792Z" transform="translate(498.015 3052.542)"></path><path class="ae" d="M-340.681-2965.831a1.835,1.835,0,0,1-1.487-.168l-11.556-6.351c-.478-.261-.589-.616-.252-.788l8.112-4.139a1.832,1.832,0,0,1,1.474.164l11.555,6.351c.482.27.6.62.261.792Z" transform="translate(513.696 3050.77)"></path><path class="ae" d="M-346.045-2962.87a1.829,1.829,0,0,1-1.474-.164l-11.555-6.35c-.478-.262-.6-.621-.261-.788l8.112-4.143a1.822,1.822,0,0,1,1.478.168l11.556,6.351c.482.262.6.615.257.788Z" transform="translate(495.343 3060.914)"></path><path class="ae" d="M-341.4-2963.194a1.823,1.823,0,0,1-1.478-.168l-11.551-6.346c-.478-.266-.6-.62-.265-.792l8.112-4.138a1.839,1.839,0,0,1,1.483.167l11.551,6.353c.483.26.6.615.261.787Z" transform="translate(511.244 3059.811)"></path><path class="ae" d="M-336.611-2963.6a1.829,1.829,0,0,1-1.482-.168l-11.547-6.347c-.482-.265-.6-.619-.257-.788l8.108-4.141a1.864,1.864,0,0,1,1.478.168l11.547,6.346c.482.266.6.62.266.792Z" transform="translate(527.661 3058.448)"></path><path class="ae" d="M-341.969-2960.633a1.84,1.84,0,0,1-1.478-.164l-11.551-6.35c-.482-.266-.6-.616-.257-.788l8.108-4.139a1.823,1.823,0,0,1,1.478.163l11.556,6.351c.478.262.593.616.252.788Z" transform="translate(509.306 3068.59)"></path><path class="ae" d="M-337.326-2960.955a1.837,1.837,0,0,1-1.483-.17l-11.551-6.345c-.478-.266-.593-.62-.257-.787l8.108-4.139a1.815,1.815,0,0,1,1.478.164l11.551,6.35c.482.262.6.615.261.788Z" transform="translate(525.207 3067.488)"></path><path class="ae" d="M-332.748-2961.471a1.843,1.843,0,0,1-1.483-.168l-11.547-6.347c-.487-.266-.6-.62-.261-.789l8.112-4.142a1.843,1.843,0,0,1,1.478.168l11.547,6.347c.482.265.6.619.261.792Z" transform="translate(540.886 3065.715)"></path><path class="ae" d="M-338.1-2958.506a1.831,1.831,0,0,1-1.483-.168l-11.551-6.352c-.478-.26-.6-.615-.261-.787l8.108-4.137a1.824,1.824,0,0,1,1.483.164l11.551,6.351c.482.265.6.619.266.792Z" transform="translate(522.533 3075.859)"></path><path class="ae" d="M-324.225-2953.749a3.055,3.055,0,0,1-2.076-.5l-19.646-10.8c-.81-.443-1.2-.952-.868-1.12l8.112-4.138a3.082,3.082,0,0,1,2.08.5l19.65,10.8c.814.451,1.195.947.859,1.119Z" transform="translate(538.488 3074.785)"></path><path class="ae" d="M-328.677-2959.231a1.835,1.835,0,0,1-1.483-.168l-11.547-6.347c-.482-.266-.593-.619-.257-.788l8.108-4.142a1.843,1.843,0,0,1,1.483.172l11.542,6.343c.483.264.6.62.266.792Z" transform="translate(554.849 3073.388)"></path><path class="ae" d="M-334.974-2956.785a1.733,1.733,0,0,1-1.421-.137l-10.719-5.891c-.447-.249-.535-.585-.2-.758l8.108-4.137a1.723,1.723,0,0,1,1.421.133l10.723,5.89c.447.248.536.584.2.761Z" transform="translate(536.486 3083.53)"></path><path class="ae" d="M-318.933-2956.75a3,3,0,0,1-2.062-.481l-19.4-10.666c-.8-.438-1.177-.939-.841-1.111l8.112-4.138a3.03,3.03,0,0,1,2.062.486l19.4,10.667c.81.442,1.182.933.845,1.106Z" transform="translate(557.573 3065.043)"></path><path class="ae" d="M-331.752-2963.8a1.846,1.846,0,0,1-1.487-.167l-11.551-6.347c-.478-.266-.593-.62-.252-.792l8.108-4.138a1.821,1.821,0,0,1,1.478.169l11.551,6.345c.478.267.6.621.261.792Z" transform="translate(544.293 3057.745)"></path><path class="ae" d="M-335.828-2966.036a1.835,1.835,0,0,1-1.483-.167l-11.551-6.347c-.478-.265-.6-.619-.261-.792l8.112-4.138a1.824,1.824,0,0,1,1.478.168l11.555,6.346c.478.266.6.621.261.792Z" transform="translate(530.33 3050.072)"></path><path class="ae" d="M-339.688-2968.156a1.874,1.874,0,0,1-1.483-.167l-11.555-6.353c-.478-.261-.593-.618-.257-.792l8.108-4.138a1.851,1.851,0,0,1,1.482.17l11.551,6.351c.482.26.6.618.261.787Z" transform="translate(517.102 3042.8)"></path><path class="ae" d="M-343.765-2970.4a1.845,1.845,0,0,1-1.483-.163l-11.551-6.352c-.478-.261-.6-.618-.261-.792l8.112-4.138a1.839,1.839,0,0,1,1.478.168l11.551,6.35c.483.262.6.617.261.789Z" transform="translate(503.14 3035.126)"></path><path class="ae" d="M-347.626-2972.521a1.849,1.849,0,0,1-1.483-.165l-11.556-6.351c-.478-.265-.593-.62-.252-.792l8.108-4.138a1.825,1.825,0,0,1,1.478.168l11.556,6.351c.478.261.6.615.261.788Z" transform="translate(489.913 3027.857)"></path><path class="ae" d="M-351.706-2974.761a1.849,1.849,0,0,1-1.474-.163l-11.555-6.352c-.478-.266-.6-.619-.261-.792l8.108-4.138a1.833,1.833,0,0,1,1.482.169l11.556,6.351c.478.26.593.615.257.783Z" transform="translate(475.95 3020.184)"></path><path class="ae" d="M-355.776-2977a1.848,1.848,0,0,1-1.483-.165l-11.551-6.351c-.482-.266-.6-.619-.261-.792l8.112-4.138a1.829,1.829,0,0,1,1.478.168l11.556,6.352c.478.26.6.615.261.787Z" transform="translate(461.989 3012.51)"></path><path class="ae" d="M-359.645-2979.127a1.807,1.807,0,0,1-1.474-.165l-11.556-6.345c-.482-.271-.593-.62-.257-.793l8.112-4.138a1.8,1.8,0,0,1,1.478.168l11.551,6.346c.478.266.593.615.257.787Z" transform="translate(448.761 3005.239)"></path><path class="ae" d="M-357.158-2977.755a2.946,2.946,0,0,1-2.036-.469l-18.982-10.432c-.788-.437-1.151-.929-.814-1.1l8.108-4.143a2.98,2.98,0,0,1,2.04.478l18.982,10.432c.783.434,1.151.921.814,1.093Z" transform="translate(428.239 2993.955)"></path><path class="ae" d="M-362.726-2974.91a2.964,2.964,0,0,1-2.036-.474l-18.982-10.433c-.788-.432-1.155-.923-.819-1.1l8.108-4.138a2.954,2.954,0,0,1,2.04.472l18.982,10.432c.788.434,1.155.925.814,1.1Z" transform="translate(409.152 3003.696)"></path><path class="ae" d="M-373.931-2978.2a1.832,1.832,0,0,1-1.474-.164l-11.555-6.352c-.478-.26-.6-.62-.261-.792l8.108-4.138a1.859,1.859,0,0,1,1.487.168l11.551,6.351c.478.261.6.616.257.789Z" transform="translate(399.813 3008.41)"></path><path class="ae" d="M-369.854-2975.96a1.836,1.836,0,0,1-1.478-.164l-11.551-6.351c-.482-.264-.6-.618-.261-.787l8.108-4.138a1.816,1.816,0,0,1,1.482.164l11.556,6.351c.478.26.6.615.257.787Z" transform="translate(413.776 3016.084)"></path><path class="ae" d="M-365.989-2973.834a1.854,1.854,0,0,1-1.487-.171l-11.547-6.347c-.482-.266-.6-.616-.261-.789l8.112-4.138a1.816,1.816,0,0,1,1.478.165l11.551,6.346c.482.266.6.62.261.8Z" transform="translate(427.002 3023.354)"></path><path class="ae" d="M-275.744-2921.319c-.336.17-.31.687-1.474.049l-102.017-56.073c-1.12-.617-2.231-1.727-1.894-1.9l7.935-4.049c.341-.172,2.85.946,3.722,1.426,13.808,7.589,113.418,62.336,101.584,55.834,1.1.606.42.486.08.663Z" transform="translate(421.13 3030.422)"></path><path class="ae" d="M-333.473-2953.018a1.338,1.338,0,0,1-1.253.053l-16.238-8.923c-.438-.242-.881-.872-.544-1.043l7.931-4.045a3.311,3.311,0,0,1,1.943.328l16.238,8.923c.434.239.2.486-.142.663Z" transform="translate(522.411 3086.175)"></path><path class="ae" d="M-338.414-2955.732a1.147,1.147,0,0,1-1.155.106l-16.238-8.927c-.443-.244-.982-.921-.642-1.094l7.931-4.048a3.765,3.765,0,0,1,2.04.381l16.238,8.925c.438.24.1.435-.244.608Z" transform="translate(505.52 3076.892)"></path><path class="ae" d="M-376.774-2976.852c-.336.172-.567.535-.89.359l-12-6.595c-.323-.177-.77-.917-.434-1.089l7.935-4.047a3.433,3.433,0,0,1,1.828.373l12,6.6c.323.176-.168.181-.5.353Z" transform="translate(390.215 3013.445)"></path><path class="ae" d="M-368.88-2972.525c-.341.172-.15.765-.589.526l-16.243-8.927c-.438-.242-.6-.818-.261-.992l7.935-4.049a2.473,2.473,0,0,1,1.655.28l16.242,8.926c.438.243-.474.013-.81.186Z" transform="translate(404.131 3021.102)"></path></g><path class="af" d="M-368.053-2854.183-141.2-2729.377c1.97,1.075,6.156,1.195,8.878-.128a9.512,9.512,0,0,0,5.36-7.729l3.027-171.575c0-4.28-3.678-9.8-8.174-12.255L-358.64-3041.228c-7.988-3.93-16.565,3.324-16.565,7.608v162.141c-.022,4.328.332,8.037,1.669,10.975A15.246,15.246,0,0,0-368.053-2854.183Z" transform="translate(543.799 3042.357)"></path><path class="j" d="M-364.451-2854.729l222.618,120.854c4.395,2.435,7.988.952,7.988-3.293l3.2-169.015c0-4.244-3.6-9.708-7.989-12.143L-365.182-3040.3c-7.4-3.663-10.024,1.05-10.024,5.295l.084,164.442a23.5,23.5,0,0,0,2.744,9.595C-370.931-2858.264-366.651-2855.945-364.451-2854.729Z" transform="translate(543.799 3044.884)"></path><path class="ae" d="M-366.758-2859.771l221.6,122.792c4.395,2.439,7.988.956,7.988-3.288l3.027-166.721c0-4.244-3.594-9.71-7.988-12.145l-224.632-120.778c-4.395-2.433-7.988-.951-7.988,3.293v161.96a18.186,18.186,0,0,0,1.66,8.656A16.814,16.814,0,0,0-366.758-2859.771Z" transform="translate(545.375 3046.723)"></path><path class="ag" d="M-371.236-2884.809l207.216,114.024,3.027-152.881-210.243-113Z" transform="translate(557.399 3061.86)"></path><path class="ah" d="M-389.388-2953.255l37.951-20.575a7.02,7.02,0,0,1,5.174.041l53.932,29.135a1.247,1.247,0,0,1,.58.628,1.578,1.578,0,0,0-.58-2l-53.932-29.13a7.011,7.011,0,0,0-5.174-.04l-37.951,20.575a1.893,1.893,0,0,0-1.133,2.487A2.354,2.354,0,0,1-389.388-2953.255Z" transform="translate(490.839 3270.78)"></path><path class="ad" d="M-353.459-2944.682l1.137-.7c.947-.566,1.155-1.944.429-2.32l-35.039-19.061a4.4,4.4,0,0,0-3.452.134l-1.5.925Z" transform="translate(486.651 3300.348)"></path><path class="ai" d="M-344.923-2921.422l72.717-40.525v-3.574L-344.923-2925Z" transform="translate(647.541 3305.568)"></path></g><path class="j" d="M-285.126-3059.068c24.757,13.63,43.368,46.7,41.562,73.829-.035.558-.093,1.106-.146,1.656a31.92,31.92,0,0,1,3.744,1.765c14.835,8.175,25.984,27.971,24.9,44.235-1.044,15.715-13.131,22.368-27.342,15.414l-99.627-55.228c-16.747-9.14-29.281-31.467-28.059-49.807,1.23-18.518,15.76-26.076,32.649-16.773a44.782,44.782,0,0,1,5.023,3.248C-327.984-3063.327-307.932-3071.629-285.126-3059.068Z" transform="translate(810.024 3064.933)"></path><path class="v" d="M-286.24-3058.813c24.758,13.63,43.368,46.691,41.562,73.829-.036.558-.093,1.106-.146,1.655a31.816,31.816,0,0,1,3.744,1.767c14.84,8.173,25.984,27.969,24.9,44.234-1.044,15.716-13.135,22.368-27.342,15.415l-99.632-55.228c-16.743-9.14-29.276-31.467-28.059-49.807,1.235-18.517,15.76-26.076,32.653-16.773a44.683,44.683,0,0,1,5.019,3.249C-329.095-3063.072-309.046-3071.378-286.24-3058.813Z" transform="translate(806.208 3065.797)"></path><g transform="translate(42.062 330.649)"><path class="aj" d="M-369.153-2884.8l-84.526-48.393v-29.035l84.526,48.393Z" transform="translate(481.908 3086.116)"></path><path class="ak" d="M-434.58-2894.06l62.588-36.433v-29.036L-434.58-2923.1Z" transform="translate(547.336 3095.375)"></path><path class="al" d="M-306.565-2921.8l-84.849-48.738-62.266,36.778,84.526,48.393Z" transform="translate(481.908 3057.649)"></path><g transform="translate(61.459 153.567)"><path class="am" d="M-437.46-2940.362l-8.711-5.161v-10l8.711,5.161Z" transform="translate(446.171 2955.523)"></path><path class="am" d="M-433.487-2938.1l-8.711-5.162v-10l8.711,5.161Z" transform="translate(459.781 2963.266)"></path><path class="am" d="M-429.764-2936.061l-8.711-5.161v-10l8.711,5.162Z" transform="translate(472.537 2970.259)"></path></g><path class="aj" d="M-369.153-2894.644l-84.526-48.394v-29.035l84.526,48.393Z" transform="translate(481.908 3052.405)"></path><path class="ak" d="M-434.58-2903.9l62.588-36.435v-29.035l-62.588,36.433Z" transform="translate(547.336 3061.661)"></path><path class="al" d="M-306.565-2931.644l-84.849-48.738-62.266,36.779,84.526,48.393Z" transform="translate(481.908 3023.936)"></path><g transform="translate(61.459 110.013)"><path class="am" d="M-437.46-2950.2l-8.711-5.162v-10l8.711,5.163Z" transform="translate(446.171 2965.365)"></path><path class="am" d="M-433.487-2947.942l-8.711-5.163v-10l8.711,5.163Z" transform="translate(459.781 2973.106)"></path><path class="am" d="M-429.764-2945.9l-8.711-5.161v-10l8.711,5.162Z" transform="translate(472.537 2980.098)"></path></g><path class="aj" d="M-369.153-2904.484l-84.526-48.394v-29.035l84.526,48.393Z" transform="translate(481.908 3018.692)"></path><path class="ak" d="M-434.58-2913.741l62.588-36.434v-29.036l-62.588,36.434Z" transform="translate(547.336 3027.949)"></path><path class="al" d="M-306.565-2941.485l-84.849-48.738-62.266,36.779,84.526,48.393Z" transform="translate(481.908 2990.223)"></path><g transform="translate(61.459 66.459)"><path class="am" d="M-437.46-2960.043l-8.711-5.161v-10l8.711,5.163Z" transform="translate(446.171 2975.206)"></path><path class="am" d="M-433.487-2957.784l-8.711-5.162v-10l8.711,5.161Z" transform="translate(459.781 2982.95)"></path><path class="am" d="M-429.764-2955.742l-8.711-5.162v-10l8.711,5.162Z" transform="translate(472.537 2989.94)"></path></g><path class="an" d="M-375.531-2881.039l-84.526-48.393v-29.035l84.526,48.391Z" transform="translate(460.058 3099.008)"></path><path class="ak" d="M-440.959-2890.3l62.588-36.434v-29.035l-62.588,36.433Z" transform="translate(525.485 3108.266)"></path><path class="al" d="M-312.943-2918.04l-84.849-48.738L-460.058-2930l84.526,48.392Z" transform="translate(460.058 3070.541)"></path><g transform="translate(33.23 170.222)"><path class="am" d="M-443.839-2936.6l-8.711-5.163v-10l8.711,5.163Z" transform="translate(452.549 2951.761)"></path><path class="am" d="M-439.866-2934.338l-8.711-5.163v-10l8.711,5.163Z" transform="translate(466.159 2959.503)"></path><path class="am" d="M-436.142-2932.3l-8.711-5.162v-10l8.711,5.161Z" transform="translate(478.915 2966.495)"></path></g><path class="an" d="M-375.531-2890.88l-84.526-48.393v-29.036l84.526,48.393Z" transform="translate(460.058 3065.297)"></path><path class="ak" d="M-440.959-2900.136l62.588-36.434v-29.035l-62.588,36.433Z" transform="translate(525.485 3074.552)"></path><path class="al" d="M-312.943-2927.88l-84.849-48.738-62.266,36.778,84.526,48.393Z" transform="translate(460.058 3036.827)"></path><g transform="translate(33.23 126.668)"><path class="am" d="M-443.839-2946.438l-8.711-5.161v-10l8.711,5.163Z" transform="translate(452.549 2961.603)"></path><path class="am" d="M-439.866-2944.18l-8.711-5.161v-10l8.711,5.161Z" transform="translate(466.159 2969.344)"></path><path class="am" d="M-436.142-2942.139l-8.711-5.162v-10l8.711,5.161Z" transform="translate(478.915 2976.336)"></path></g><path class="an" d="M-375.531-2900.721l-84.526-48.393v-29.036l84.526,48.394Z" transform="translate(460.058 3031.583)"></path><path class="ak" d="M-440.959-2909.977l62.588-36.434v-29.036l-62.588,36.435Z" transform="translate(525.485 3040.841)"></path><path class="al" d="M-312.943-2937.722l-84.849-48.738-62.266,36.78,84.526,48.393Z" transform="translate(460.058 3003.115)"></path><g transform="translate(33.23 83.115)"><path class="am" d="M-443.839-2956.28l-8.711-5.162v-10l8.711,5.162Z" transform="translate(452.549 2971.443)"></path><path class="am" d="M-439.866-2954.021l-8.711-5.162v-10l8.711,5.162Z" transform="translate(466.159 2979.184)"></path><path class="am" d="M-436.142-2951.978l-8.711-5.163v-10l8.711,5.162Z" transform="translate(478.915 2986.177)"></path></g><path class="an" d="M-338.814-2953.688l-56.656-32.543L-453.3-2952.26l56.44,32.312Z" transform="translate(483.222 3003.893)"></path></g><path class="ao" d="M-288.721-3057.377c24.266,13.36,42.5,45.761,40.734,72.36-.035.544-.093,1.085-.142,1.619a31.626,31.626,0,0,1,3.669,1.731c14.543,8.011,25.466,27.418,24.4,43.354-1.022,15.4-12.87,21.922-26.8,15.111l-97.64-54.131c-16.411-8.953-28.7-30.838-27.5-48.816,1.2-18.146,15.441-25.554,32-16.438a43.971,43.971,0,0,1,4.921,3.187C-330.721-3061.547-311.071-3069.691-288.721-3057.377Z" transform="translate(803.533 3071.125)"></path><g transform="translate(256.615 503.568)"><path class="j" d="M-407.348-2947.213c0,1.341-.947,1.881-2.116,1.208a4.662,4.662,0,0,1-2.115-3.651c0-1.34.947-1.881,2.115-1.2A4.667,4.667,0,0,1-407.348-2947.213Z" transform="translate(411.579 2951.152)"></path></g><g transform="translate(438.313 170.329)"><path class="h" d="M-366.59-3003.79s9.59-9.989,27.1-.239c13.388,7.452,6.333,6.417,22.412,12.254,9.48,3.444,24.319-10.1,47.687,1.413,42.31,20.854,57.313-12.384,75.627,8.228l-.553,88.643-172.355-96.972Z" transform="translate(383.713 3088.61)"></path><line class="ap" y1="88.557" x2="0.555" transform="translate(17.037 10.085)"></line><line class="ap" y1="88.557" x2="0.555" transform="translate(59.972 33.221)"></line><line class="ap" y1="88.557" x2="0.555" transform="translate(102.9 57.467)"></line><line class="ap" y1="88.557" x2="0.555" transform="translate(145.828 81.692)"></line><line class="ap" y1="88.557" x2="0.555" transform="translate(188.747 107.288)"></line><path class="j" d="M-322.6-2999.245l-5.656-3.489a2.667,2.667,0,0,1-1.133-2.065h0c0-.75.522-1.046,1.146-.66l5.661,3.487a2.663,2.663,0,0,1,1.129,2.063h0C-321.455-2999.157-321.968-2998.861-322.6-2999.245Z" transform="translate(511.451 3097.767)"></path><path class="j" d="M-319.542-2976.352l-5.66-3.488-.049-.026-4.2-2.588c-.624-.391-1.142-.089-1.146.659a2.675,2.675,0,0,0,1.129,2.066l5.66,3.488.053.027,4.2,2.589c.629.386,1.142.089,1.146-.658A2.663,2.663,0,0,0-319.542-2976.352Z" transform="translate(507.286 3176.572)"></path><path class="j" d="M-330.175-2982.646l-5.661-3.489-.053-.024-4.2-2.59c-.628-.385-1.142-.088-1.146.66a2.679,2.679,0,0,0,1.128,2.067l5.661,3.487.053.026,4.2,2.589c.624.385,1.142.089,1.146-.659A2.676,2.676,0,0,0-330.175-2982.646Z" transform="translate(470.86 3155.01)"></path><path class="j" d="M-340.108-2988.461l-5.656-3.488-.053-.027-4.2-2.589c-.624-.384-1.142-.088-1.146.664a2.663,2.663,0,0,0,1.133,2.062l5.656,3.489.053.026,4.2,2.594c.624.384,1.142.084,1.146-.665A2.667,2.667,0,0,0-340.108-2988.461Z" transform="translate(436.832 3135.09)"></path><path class="j" d="M-349.481-2993.909l-5.656-3.487-.053-.022-4.2-2.594c-.624-.384-1.142-.087-1.146.665a2.693,2.693,0,0,0,1.128,2.067l5.661,3.487.053.027,4.2,2.588c.628.385,1.146.088,1.151-.666A2.682,2.682,0,0,0-349.481-2993.909Z" transform="translate(404.723 3116.43)"></path><path class="j" d="M-332.443-3004.43l-5.66-3.486a2.68,2.68,0,0,1-1.129-2.068h0c0-.748.522-1.049,1.146-.659l5.66,3.487a2.678,2.678,0,0,1,1.129,2.063h0C-331.3-3004.341-331.819-3004.043-332.443-3004.43Z" transform="translate(477.722 3080.008)"></path><path class="j" d="M-342.076-3009.544l-5.656-3.487a2.667,2.667,0,0,1-1.129-2.066h0c0-.753.518-1.05,1.146-.664l5.656,3.487a2.683,2.683,0,0,1,1.133,2.068h0C-340.93-3009.457-341.448-3009.159-342.076-3009.544Z" transform="translate(444.735 3062.475)"></path><path class="j" d="M-351.841-3014.786l-5.656-3.486a2.672,2.672,0,0,1-1.133-2.063h0c.009-.752.522-1.05,1.151-.664l5.656,3.487a2.67,2.67,0,0,1,1.133,2.067h0C-350.7-3014.7-351.213-3014.4-351.841-3014.786Z" transform="translate(411.27 3044.54)"></path><path class="j" d="M-361.463-3020.066l-5.661-3.487a2.666,2.666,0,0,1-1.128-2.067h0c0-.748.518-1.045,1.146-.659l5.656,3.486a2.671,2.671,0,0,1,1.133,2.063h0C-360.321-3019.978-360.839-3019.68-361.463-3020.066Z" transform="translate(378.307 3026.448)"></path><path class="j" d="M-359.464-2999.438l-5.66-3.488-.053-.025-4.2-2.59c-.629-.385-1.142-.089-1.146.665a2.665,2.665,0,0,0,1.129,2.063l5.661,3.491.049.022,4.2,2.593c.624.385,1.142.085,1.146-.663A2.676,2.676,0,0,0-359.464-2999.438Z" transform="translate(370.524 3097.486)"></path></g><ellipse class="ae" cx="26.135" cy="45.269" rx="26.135" ry="45.269" transform="translate(597.794 139.072) rotate(-30.311)"></ellipse><path class="aq" d="M-297.109-2986.021c4.607-3.722,7.378-10.307,7.378-19.243a55.994,55.994,0,0,0-3.023-17.353l-14.972-6.17-17.2,7.608v.921Z" transform="translate(965.047 3188.763)"></path><g transform="translate(117.542 322.048)"><path class="ar" d="M-428.079-2951.693s-16.118-8.812-12.069-19.089,20.726,14.1,20.726,14.1Z" transform="translate(450.547 3056.759)"></path><path class="f" d="M-411.333-2954.013c-1.416,0-29.789,10.229-29.763-13.268s36.22,3.329,36.22,3.329Z" transform="translate(449.535 3044.367)"></path><path class="a" d="M-413.64-2952.2l-9.307-9.463a11.839,11.839,0,0,0-6.037-.863,1.861,1.861,0,0,0-1.611,1.695l-.164,1.88c-.332,2.71-.093,3.1,1.567,4.09l9.838,5.856a6.326,6.326,0,0,0,5.665.309l.412-.23C-411.821-2949.749-411.984-2951.223-413.64-2952.2Z" transform="translate(484.507 3093.451)"></path><path class="o" d="M-430.664-2955.3c0,2.784,6.776,2.784,6.776,0v-9.056h-6.776Z" transform="translate(485.272 3087.452)"></path><path class="a" d="M-418.249-2948.589l-8.059-10.542a11.8,11.8,0,0,0-5.882-1.607,1.86,1.86,0,0,0-1.81,1.482l-.4,1.846c-.664,2.648-.474,3.068,1.049,4.254l9.037,7.028a6.315,6.315,0,0,0,5.581,1.01l.438-.177C-416.749-2945.925-416.726-2947.408-418.249-2948.589Z" transform="translate(471.237 3099.833)"></path><path class="o" d="M-434.41-2953.532c-.345,2.761,6.378,3.6,6.723.841l1.124-8.983-6.723-.842Z" transform="translate(472.395 3093.737)"></path><path class="f" d="M-421.5-2976.241s20.973,10.736,21.85,16.322c.77,4.9,1.615,33.95,1.124,40.774a2.725,2.725,0,0,1-1.531,2.275c-2.08.991-5.833,2.072-7.086-2.16-1.766-5.97-1.16-26.372-5.386-32.215s-25.213-14.073-25.213-14.073Z" transform="translate(461.031 3046.725)"></path><path class="f" d="M-426.167-2974.04s23.47,11.7,24.16,17.017c.6,4.647-2.3,31.1-3.045,37.747a2.77,2.77,0,0,1-1.744,2.267c-2.138.845-5.815,1.628-6.909-2.351-1.571-5.718-.27-25.009-4.315-30.692-2.191-3.079-7.829-6.562-17.451-11.1-4.4-2.075-7.55-10.724-2.2-11.411Z" transform="translate(451.623 3054.264)"></path><path class="p" d="M-427.807-2983.958l4.474,17.163c.385,2.039,1.08,5.014,1.58,8.507a20.475,20.475,0,0,1-4.1,15.4s-1.593-8.4-3.173-12.357a136.511,136.511,0,0,1-5.041-15.4C-434.052-2971.084-427.807-2983.958-427.807-2983.958Z" transform="translate(473.621 3020.283)"></path><path class="aq" d="M-433.137-2986.591l10.524,18.085c-1.438,5.749-4.554,8.674-8.488,10.215l-3.346-22.347Z" transform="translate(472.312 3011.267)"></path><path class="as" d="M-423.695-2983s-1.691,5-11.135,8.228" transform="translate(471 3023.573)"></path><path class="aq" d="M-404.2-2940.285c-1.624-8.9-1.266-14.331.2-26.612,0-17.008-5.178-23.332-15.893-19.425l-4.426,1.177c-12.932,6.967-19.5,6.616-17.19,20.3l2.266,30C-439.248-2919.4-403.382-2922.13-404.2-2940.285Z" transform="translate(446.54 3008.365)"></path><path class="at" d="M-428.871-2974.369a9.114,9.114,0,0,1-2.549,1.74c-.854.18-10.046-7.25-6.718-15.579,2.107-5.276,12.073-1.142,12.073-1.142Z" transform="translate(457.19 2996.535)"></path><path class="p" d="M-434.222-2973.012l.513.089a3.214,3.214,0,0,0,3.7-2.621l1.664-9.794a3.212,3.212,0,0,0-2.624-3.691l-.513-.088a3.215,3.215,0,0,0-3.7,2.62l-2.979,9.174C-438.458-2975.584-435.957-2973.3-434.222-2973.012Z" transform="translate(459.505 3002.455)"></path><path class="w" d="M-430.834-2983.76a8.784,8.784,0,0,1-6.953-3.938s2.651,6.151,6.484,6.678Z" transform="translate(460.87 3007.472)"></path><path class="p" d="M-436.719-2976.391c.978,4.677,4.289,6.218,7.4,3.442s4.833-8.821,3.859-13.5-4.284-6.218-7.391-3.444S-437.693-2981.07-436.719-2976.391Z" transform="translate(463.6 2995.236)"></path><path class="p" d="M-437.857-2977.172c.974,4.679,5.762,6.7,8.869,3.922s4.837-8.821,3.864-13.5-4.289-6.218-7.4-3.444S-438.831-2981.85-437.857-2977.172Z" transform="translate(460.02 2994.206)"></path><path class="at" d="M-428.109-2985.625s-.478,8.848-7.683,9.635c0,0-7-5.793.106-13.188,6.262-6.52,13.366.441,13.366.441Z" transform="translate(457.15 2992.851)"></path><path class="x" d="M-429.219-2984.336a8.4,8.4,0,0,0-6.6-3.97l3.032-2.931S-428.989-2991.254-429.219-2984.336Z" transform="translate(467.615 2995.352)"></path><path class="at" d="M-434.122-2980.448c1.961-1.881,5.457-1.132,10.148,1.664,4.59,1.067,6.13-4.124,6.13-4.124,1.217-2.7-.438-4.3-3.142-5.51l-7.041-3.164c-3.979-1.811-8.59.929-9.807,3.634l-.27.434C-439.318-2984.816-436.822-2981.664-434.122-2980.448Z" transform="translate(458.701 2992.166)"></path><path class="p" d="M-438.261-2986.12a2.106,2.106,0,0,0,2.492,1.629,2.1,2.1,0,0,0,1.629-2.487,2.1,2.1,0,0,0-2.487-1.628A2.106,2.106,0,0,0-438.261-2986.12Z" transform="translate(459.096 3004.201)"></path><path class="j" d="M-427.753-2986.552s3.554,4.962-1.46,7.094c-7.94,3.382-10.409-5.612-9.17-6.13l2.51-1.3a3.382,3.382,0,0,0,.792,4.6c1.868,1.574,5.222,1.911,6.665-.55Z" transform="translate(457.789 3010.264)"></path><path class="au" d="M-435.109-2982.8v29.126l-5.378-3.155Z" transform="translate(451.623 3024.263)"></path><g transform="translate(22.14 61.667)"><path class="t" d="M-437.962-2964.9l2.483-.877.292-.293.186-.336,18.721-9.732a.967.967,0,0,1,.828.032l7.147,4.191.013-.116,1.35.541-.062.557h-.009a.31.31,0,0,1-.151.142l-19.478,10.129a.112.112,0,0,0-.053.075c-.407,1.492-1.084,2.83-2.359,2.05l-7.913-4.665a1.886,1.886,0,0,1-1-1.7Z" transform="translate(438.131 2985.143)"></path><path class="u" d="M-427.311-2958.484l22.434-11.666c.261-.138.257-.373-.009-.531l-9.533-5.59a1.1,1.1,0,0,0-.956-.035l-22.434,11.666c-.261.133-.252.373.013.527l9.533,5.589A1.107,1.107,0,0,0-427.311-2958.484Z" transform="translate(438 2984.515)"></path><path class="t" d="M-433.721-2970.693l5.426-2.824c.062-.032.062-.088,0-.128l-2.31-1.35a.261.261,0,0,0-.23-.013l-5.43,2.823c-.062.035-.062.093,0,.129l2.306,1.354A.288.288,0,0,0-433.721-2970.693Z" transform="translate(443.785 2989.21)"></path><path class="j" d="M-432.3-2965.333a2.548,2.548,0,0,1,1.129-1.4l22.253-11.4a.572.572,0,0,1,.474-.072h0a.268.268,0,0,1,.1.08l.62.7-.628-.052-3.337,12.325a2.533,2.533,0,0,1-1.129,1.408l-21.04,10.777-.717.69-.1.167c-.412.084-1.3-.567-1.3-.567Z" transform="translate(444.955 2978.233)"></path><path class="av" d="M-435.115-2952.177s23.235-12.277,23.377-12.808l3.377-12.463c.142-.53-.128-.766-.606-.517l-22.253,11.4a2.537,2.537,0,0,0-1.129,1.407l-3.372,12.463C-435.867-2952.164-435.6-2951.933-435.115-2952.177Z" transform="translate(445.671 2978.806)"></path><path class="j" d="M-432.772-2973.127c-.177.664.434.81,1.372.333a4.252,4.252,0,0,0,2.018-2.068c.177-.658-.434-.811-1.372-.332A4.286,4.286,0,0,0-432.772-2973.127Z" transform="translate(455.804 2987.687)"></path></g><path class="p" d="M-430.985-2982.8l-2.948,26.1c-.115,1.4,21.35,8.276,21.35,8.276l-1.806,7.568-21.956-5.621c-5.8-2.434-5.652-6.873-5.585-10.516l.407-22.624Z" transform="translate(446.62 3024.263)"></path><path class="aq" d="M-426.717-2970.738l-1.85,19.336c-.544,1.6-14.99-1.7-14.419-4.089.1-.424,1.589-23.593,8.068-28.885C-429.651-2988.676-425.434-2979.656-426.717-2970.738Z" transform="translate(443.003 3015.06)"></path><path class="as" d="M-429.362-2975.921s-5.984,1.548-13.4-3.9" transform="translate(443.838 3034.459)"></path></g><g transform="translate(220.691 462.518)"><path class="aw" d="M-374.531-2877.575l72.511-41.863c4.28-2.469,3.74-6.825-1.2-9.675l-24.315-14.038c-4.939-2.854-12.481-3.165-16.76-.695l-72.511,41.862c-4.28,2.469-3.735,6.824,1.2,9.679l24.315,14.038C-386.352-2875.416-378.806-2875.1-374.531-2877.575Z" transform="translate(419.696 3011.516)"></path><g transform="translate(16.841)"><path class="h" d="M-382.89-2936.555l20.777-11.955-20.642-11.917-20.912,11.917Z" transform="translate(457.768 2960.427)"></path><path class="ax" d="M-378.2-2957.734v70.16l-20.761,11.955-.016-70.16Z" transform="translate(473.85 2969.652)"></path><path class="ay" d="M-382.89-2945.78l.016,70.16-20.793-11.955v-70.16Z" transform="translate(457.768 2969.652)"></path><path class="aq" d="M-388.944-2926.917l20.629-11.992-20.577-11.881-20.706,11.955Z" transform="translate(437.448 2993.444)"></path><path class="au" d="M-404.931-2892.158l20.521-11.955V-2948.1l-20.521,11.955Z" transform="translate(453.436 3002.669)"></path><path class="i" d="M-389.047-2892.158l-20.521-11.955V-2948.1l20.521,11.955Z" transform="translate(437.551 3002.669)"></path><path class="j" d="M-395.111-2919.463l20.706-11.955-20.577-11.881-20.91,11.93Z" transform="translate(415.891 3019.108)"></path><path class="az" d="M-394.748-2900.738l-21.143-12.674V-2940.6l21.143,11.955Z" transform="translate(415.891 3028.341)"></path><g transform="translate(20.75 87.689)"><path class="j" d="M-411.2-2900.75v-27.909l20.706-11.955v27.91Z" transform="translate(411.202 2940.614)"></path></g></g></g><g transform="translate(495.655 272.633)"><ellipse class="m" cx="22.466" cy="11.161" rx="22.466" ry="11.161" transform="translate(0 159.014) rotate(-1.016)"></ellipse><path class="aq" d="M-348.506-2963.141s8.71,3.656,24.271-17.322c3.151-4.248,7.219-19.349,7.219-19.349l-3.749-1.668s-5.656,12.868-10.285,17.016c-6.214,5.568-23.24,13.068-23.979,15.879S-348.506-2963.141-348.506-2963.141Z" transform="translate(366.082 3009.673)"></path><path class="at" d="M-354.806-2964.6l4.886-.615c3.266-1.483,4.8-2.593,6.254-1.752l.412.238c1.456.84,1.27,2.323-.412,3.293l-7.183,5.7a4.736,4.736,0,0,1-5.289-.513s-.8-.726-.226-3.775C-356.036-2963.761-356.151-2963.822-354.806-2964.6Z" transform="translate(360.977 3126.924)"></path><path class="p" d="M-349.774-2902.376c-.394,3.373-6.581,3.373-6.581.8l3.43-77.959,20.642-5.82Z" transform="translate(361.721 3064.916)"></path><path class="at" d="M-348.943-2964.971l4.837.912c3.567-.41,5.364-1,6.492.243l.319.355c1.128,1.242.5,2.6-1.4,3.009l-8.581,3.235a4.753,4.753,0,0,1-4.882-2.106s-.54-.938.938-3.669C-350.373-2964.55-350.461-2964.643-348.943-2964.971Z" transform="translate(375.774 3134.748)"></path><path class="p" d="M-338.887-2902.887c-1.075,2.725-5.8,2.128-5.722-.112,2.208-27.01-2.877-52.525-9.427-77.348l19.823-2.141C-333.439-2953.443-333.7-2928.549-338.887-2902.887Z" transform="translate(369.665 3074.73)"></path><path class="f" d="M-326.741-2984.078l6.9,37.835s-17.132,16.977-36.729,0l2.2-35.524Z" transform="translate(360.967 3069.287)"></path><ellipse class="p" cx="6.332" cy="11.171" rx="6.332" ry="11.171" transform="translate(14.073 18.481) rotate(-7.368)"></ellipse><path class="p" d="M-339.264-2982.85c-1.474,5.133-6.984,6.993-10.219,3.643s-4.669-10.238-3.2-15.375,5.293-6.585,8.533-3.232S-337.791-2987.989-339.264-2982.85Z" transform="translate(372.327 3016.04)"></path><path class="p" d="M-350.388-2978.973l-.553-.121a3.476,3.476,0,0,1-2.624-4.139l2.337-10.483a3.473,3.473,0,0,1,4.138-2.629l.549.123a3.478,3.478,0,0,1,2.629,4.134l-.766,10.41C-345.095-2979.82-348.529-2978.557-350.388-2978.973Z" transform="translate(370.992 3026.985)"></path><path class="n" d="M-351.646-2981.2s-.642,3.563,5.576,3.908c4.974.275,3.5-8.723,8.426-9.524,5.426-.885,6.409-7.585,4.271-10.161s-8.112-3.917-12.441-2.005S-359.227-2995.689-351.646-2981.2Z" transform="translate(367.855 3015.129)"></path><path class="p" d="M-347.164-2993.984a2.354,2.354,0,0,1-2.912,1.615,2.356,2.356,0,0,1-1.611-2.913,2.351,2.351,0,0,1,2.908-1.611A2.354,2.354,0,0,1-347.164-2993.984Z" transform="translate(377.398 3025.076)"></path><path class="aq" d="M-356.1-2946.244c1.757-9.626-.133-17.235.022-27.467,0-18.4-.885-22.889,8.843-20.089l2.739.726a18.886,18.886,0,0,1,3.806,1.469c12.821,6.606,16.247,8.643,15.68,16.309.062,12.621-5.815,15.192-2.7,26.243C-330.344-2940.323-353.163-2940-356.1-2946.244Z" transform="translate(362.605 3033.366)"></path><path class="w" d="M-351.082-2993.631l-.553-1.288a3.523,3.523,0,0,0,2.881.751A4.543,4.543,0,0,1-351.082-2993.631Z" transform="translate(377.89 3032.15)"></path><g transform="translate(12.202 18.624)"><ellipse class="j" cx="4.48" cy="5.205" rx="4.48" ry="5.205"></ellipse></g><path class="n" d="M-341.018-2996.165a2.643,2.643,0,0,0-4.851-1.576,10.248,10.248,0,0,0-1.2,3.2c-1.81,8-15.291,6.841-8.679,20.925,0,0-6.014,9.24,5.169,13.135,5.722,1.992,5.594-12.747,5.594-12.747s2.284-6.775,4.488-12.09a9.884,9.884,0,0,0,.031-7.8A6.132,6.132,0,0,1-341.018-2996.165Z" transform="translate(357.585 3018.371)"></path><g transform="translate(16.147 38.984)"><path class="j" d="M-352.034-2994.48a1.539,1.539,0,0,0-1.863,1.756,4.223,4.223,0,0,0,3.125,3.377,15.169,15.169,0,0,0,7.966.1.439.439,0,0,0,.124-.8C-344.488-2991.165-348.821-2993.706-352.034-2994.48Z" transform="translate(353.919 2994.523)"></path></g><path class="j" d="M-333.665-2964.057l-14.612-8.466,8.6-25.146,14.612,8.466Z" transform="translate(389.396 3022.73)"></path><path class="aq" d="M-351.688-2983.257s12.578,30.573,26.3,15.845,8.9-25.117,8.9-25.117l-1.841-.5s-5.581,18.5-11.525,16.668-14.012-13.252-16.866-13.786S-351.688-2983.257-351.688-2983.257Z" transform="translate(377.709 3038.624)"></path><rect class="p" width="6.538" height="8.891" rx="0.739" transform="translate(49.181 10.878) rotate(-153.377)"></rect><path class="p" d="M-341.955-2986.833h0a2.4,2.4,0,0,1-2.394-2.394v-2.453a2.4,2.4,0,0,1,2.394-2.39h0a2.4,2.4,0,0,1,2.39,2.39v2.453A2.4,2.4,0,0,1-341.955-2986.833Z" transform="translate(402.85 3035.066)"></path><g transform="translate(45.127 30.558)"><path class="ba" d="M-343.247-2992.748l-2.5-1.443a1.43,1.43,0,0,1-.6-1.584h0a.822.822,0,0,1,1.239-.526l2.5,1.442a1.423,1.423,0,0,1,.6,1.584h0A.821.821,0,0,1-343.247-2992.748Z" transform="translate(350.699 2996.427)"></path><path class="bb" d="M-341.845-2991.263l-3.771-2.177a1.125,1.125,0,0,1-.469-1.252h0a.646.646,0,0,1,.978-.416l3.771,2.173a1.136,1.136,0,0,1,.469,1.257h0A.649.649,0,0,1-341.845-2991.263Z" transform="translate(351.625 3000.598)"></path><path class="bb" d="M-338.951-2988.576l-6.926-4a1.132,1.132,0,0,1-.474-1.256h0a.653.653,0,0,1,.982-.417l6.926,4a1.127,1.127,0,0,1,.469,1.252h0A.645.645,0,0,1-338.951-2988.576Z" transform="translate(350.723 3003.564)"></path><path class="bb" d="M-342.372-2989.533l-3.766-2.173a1.133,1.133,0,0,1-.474-1.258h0a.652.652,0,0,1,.982-.416l3.766,2.173a1.137,1.137,0,0,1,.473,1.257h0A.652.652,0,0,1-342.372-2989.533Z" transform="translate(349.82 3006.53)"></path><path class="ba" d="M-344.273-2989.67l-2.58-1.487a1.132,1.132,0,0,1-.474-1.257h0a.649.649,0,0,1,.978-.416l2.58,1.492a1.121,1.121,0,0,1,.474,1.252h0A.645.645,0,0,1-344.273-2989.67Z" transform="translate(347.371 3008.412)"></path></g></g><path class="f" d="M-231.81-2949.35c.088-6.62-2.979-12.52-8.05-15.476L-318.4-3010.61c-4.3-2.506-7.891.752-7.975,7.236l-.788,58.137c-.084,6.138,2.762,11.608,7.462,14.351l72.139,42.049c6.585,3.841,14.959-2.111,15.078-10.709Z" transform="translate(957.375 3248.139)"></path><path class="aq" d="M-263.952-2946.382l-55.432-32c-2.753-1.589-5.006-5.892-5.006-9.563v-7.228c0-3.669,2.253-5.367,5.006-3.779l55.432,32c2.748,1.589,5,5.891,5,9.561v7.226C-258.951-2946.5-261.2-2944.792-263.952-2946.382Z" transform="translate(966.879 3288.919)"></path><path class="aq" d="M-263.952-2953.647l-55.432-32c-2.753-1.59-5.006-5.892-5.006-9.561v-7.226c0-3.67,2.253-5.374,5.006-3.784l55.432,32c2.748,1.588,5,5.89,5,9.559v7.227C-258.951-2953.758-261.2-2952.059-263.952-2953.647Z" transform="translate(966.879 3264.033)"></path><g transform="translate(651.148 301.908)"><path class="j" d="M-315.558-2991.363l-1.56-.864,1.112-.6-1.087-1.812-1.112.6.013-1.715-1.551-.858-.012,1.715-1.094-1.823-1.105.6,1.094,1.823-1.56-.864-.012,1.7,1.56.864-1.112.6,1.087,1.811,1.113-.6-.013,1.714,1.551.858.013-1.715,1.094,1.823,1.105-.6-1.095-1.824,1.56.862Z" transform="translate(322.434 2996.718)"></path></g><g transform="translate(661.368 307.56)"><path class="j" d="M-313.248-2990.086l-1.56-.864,1.112-.6-1.087-1.812-1.112.6.013-1.714-1.551-.858-.013,1.716-1.094-1.823-1.1.6,1.094,1.822-1.56-.862-.013,1.7,1.56.863-1.113.6,1.087,1.811,1.112-.6-.013,1.716,1.551.858.013-1.715,1.094,1.822,1.105-.6-1.095-1.822,1.56.862Z" transform="translate(320.124 2995.44)"></path></g><g transform="translate(671.588 313.211)"><path class="j" d="M-310.939-2988.809l-1.56-.864,1.112-.6-1.087-1.812-1.112.6.013-1.715-1.551-.858-.013,1.716-1.094-1.822-1.1.6,1.094,1.823-1.56-.863-.013,1.7,1.56.863-1.113.6,1.087,1.81,1.113-.6-.013,1.716,1.551.858.013-1.715,1.094,1.821,1.105-.6-1.095-1.823,1.56.863Z" transform="translate(317.815 2994.163)"></path></g><g transform="translate(681.808 318.864)"><path class="j" d="M-308.63-2987.532l-1.56-.863,1.112-.6-1.087-1.812-1.112.6.013-1.715-1.551-.858-.013,1.715-1.094-1.822-1.1.6,1.094,1.821-1.56-.862-.013,1.705,1.56.863-1.113.6,1.087,1.811,1.112-.6-.013,1.716,1.551.858.013-1.716,1.094,1.822,1.105-.6-1.095-1.824,1.56.864Z" transform="translate(315.506 2992.886)"></path></g><g transform="translate(692.029 324.516)"><path class="j" d="M-306.321-2986.255l-1.56-.863,1.112-.6-1.087-1.812-1.112.6.013-1.714-1.551-.858-.013,1.716-1.094-1.823-1.1.6,1.094,1.821-1.56-.862-.013,1.7,1.56.864-1.113.6,1.087,1.812,1.113-.6-.013,1.716,1.551.859.013-1.717,1.094,1.823,1.105-.6-1.095-1.823,1.56.864Z" transform="translate(313.197 2991.609)"></path></g><g transform="translate(649.119 266.287)"><path class="j" d="M-272.647-2971.489l-48.311-27.89a4.65,4.65,0,0,1-1.934-3.7h0c0-1.417.872-2.075,1.934-1.461l48.311,27.892a4.647,4.647,0,0,1,1.934,3.7h0C-270.713-2971.528-271.58-2970.872-272.647-2971.489Z" transform="translate(322.892 3004.766)"></path></g><g transform="translate(706.663 275.962)"><path class="ay" d="M-284.4-2977.587c1.483-7.762-2.571-17.88-9.051-22.6-2.983-2.173-5.957-2.819-8.444-2.133l0,0-.026.013a6.986,6.986,0,0,0-.978.355l-5.913,2.376,2.908.111a11.843,11.843,0,0,0-1.961,4.789c-1.483,7.762,2.571,17.879,9.055,22.6a12.93,12.93,0,0,0,3.935,2l.513,1.7,4.125-1.606a6.592,6.592,0,0,0,.664-.235l.075-.026,0,0C-287.009-2971.307-285.115-2973.821-284.4-2977.587Z" transform="translate(313.572 3002.58)"></path><path class="h" d="M-286.111-2977.1c-1.483,7.762-7.94,10.227-14.419,5.5s-10.533-14.835-9.055-22.6,7.935-10.227,14.419-5.506S-284.633-2984.867-286.111-2977.1Z" transform="translate(309.89 3004.221)"></path><path class="bc" d="M-308.659-3000.444l4.787,16.25,7.61-5.371" transform="translate(314.105 3009.893)"></path></g><g transform="translate(409.495 544.783)"><path class="a" d="M-326.45-2873.264l-50.585-29.205,50.269-29.023,51.082,29.146Z" transform="translate(377.035 2977.287)"></path><path class="a" d="M-326.45-2883.611l-50.585-29.2,50.269-29.023,51.082,29.145Z" transform="translate(377.035 2941.839)"></path><g transform="translate(0.073 28.981)"><path class="az" d="M-377.019-2935.291" transform="translate(377.019 2935.291)"></path><path class="bd" d="M-326.508-2906.076l.074,37.168-50.585-29.2v-37.169Z" transform="translate(377.02 2935.323)"></path></g><g transform="translate(49.699 29.145)"><path class="be" d="M-364.92-2906.171l50.766-29.083v35.413l-51.652,30.964Z" transform="translate(365.806 2935.254)"></path><path class="bf" d="M-354.135-2935.254" transform="translate(405.787 2935.254)"></path></g><path class="j" d="M-359.7-2912.605l-10.106-5.88v-7.569l10.106,5.88Z" transform="translate(401.794 2995.915)"></path><path class="j" d="M-362.734-2909.413l-10.106-5.88v-13.9l10.106,5.88Z" transform="translate(391.409 2985.153)"></path><path class="j" d="M-375.871-2909.79l10.106,5.879v-23.221l-10.106-5.88Z" transform="translate(381.023 2972.082)"></path></g><g transform="translate(433.772 550.581)"><path class="bg" d="M-325.166-2933.515c-10.33-6.192-27.236-6.475-37.765-.624s-10.693,15.608-.363,21.8,27.05,6.479,37.774.752C-313.73-2917.883-314.837-2927.319-325.166-2933.515Z" transform="translate(373.655 2947.996)"></path><path class="k" d="M-328.005-2934.184c-9.807-5.881-25.864-6.151-35.866-.6s-10.153,14.826-.345,20.708,25.691,6.156,35.879.713C-317.145-2919.34-318.194-2928.3-328.005-2934.184Z" transform="translate(371.816 2946.533)"></path><path class="h" d="M-328.08-2935.938c-9.812-5.882-25.868-6.148-35.866-.593s-10.157,14.822-.345,20.7,25.691,6.157,35.875.713C-317.219-2921.094-318.273-2930.057-328.08-2935.938Z" transform="translate(371.55 2940.53)"></path><path class="bh" d="M-363.426-2938.891l-4.094,9.589,23.656-2.979" transform="translate(385.355 2946.144)"></path></g><path class="ay" d="M-280.2-2992.062c-2.779-16.394-11.98-33.742-24.094-45.988l-14.468,10.313,5.249,10.019-8.143,17.965,19.447,3.607,7.546,14.4Z" transform="translate(976.242 3157.027)"></path><path class="h" d="M-324.925-2997.426l41.456,7.693c-2.784-16.392-11.985-33.743-24.1-45.987Z" transform="translate(965.047 3165.01)"></path><path class="bi" d="M-296.057-2995.488s-30.533,7.24-47.6-31.98c-11.148,14.017-27.647,3.345-38.021-6.076l-9.657-10.1c-6.152,2.434-9.719,3.943-15.565,8.187l4.058,6.6,1.2,1.836c-14.826,42.3,24.727,111.369,31.932,122.071,8.263,12.272,21.987,31.529,21.987,31.529s20.544-1.929,28.882-5.815S-267.029-2921.831-296.057-2995.488Z" transform="translate(684.209 3137.851)"></path><path class="j" d="M-301.089-2993.634s-30.529,7.242-47.6-31.984c-17.353,21.823-47.678-16.181-47.678-16.181-37.442,37.394,13.37,126.422,21.628,138.695,5.661,8.4,13.875,20.078,18.5,26.607,2.169,3.066,5.475,4.736,8.6,4.346,6.639-.836,18.07-2.581,23.775-5.235C-315.539-2881.273-264.152-2918.638-301.089-2993.634Z" transform="translate(673.676 3144.188)"></path><path class="k" d="M-321.264-2999.137s-24.213,5.746-37.756-25.363c-13.759,17.3-37.813-12.834-37.813-12.834-29.7,29.656,10.6,100.265,17.154,110,3.536,5.249,8.4,12.662,12.14,18.379,3.39,5.187,8.98,7.807,13.95,6.541,4.93-1.256,10.847-2.938,14.255-4.528C-332.727-2910.02-291.971-2939.658-321.264-2999.137Z" transform="translate(681.734 3159.48)"></path><path class="h" d="M-358.895-3009.085s-24.2,5.741-37.747-25.345l.863,122.189a10.554,10.554,0,0,0,4.559-.12c4.93-1.256,10.847-2.938,14.255-4.528C-370.357-2919.969-329.6-2949.607-358.895-3009.085Z" transform="translate(719.364 3169.429)"></path><path class="bj" d="M-400.156-3009.923l11.778,16.957,24.459-30.756" transform="translate(707.327 3206.112)"></path><g transform="translate(449.754 7.178)"><path class="bk" d="M-367.939-3011.2l78.087,50.037c2.27.96,4.722-.385,4.722-2.439v-58.22c0-2.056-1.987-4.062-4-5.1l-54.848-29.5c-2.151-.965-3.187-1.275-6.218.729l-15.189,9.108c-1.425.829-2.323,1.187-2.31,4.063C-367.625-3028.588-367.939-3011.2-367.939-3011.2Z" transform="translate(367.939 3084.305)"></path><path class="bl" d="M-331.672-2988.544l-22.681,14,2.137-63.223,20.544-11.59Z" transform="translate(414.483 3111.124)"></path><path class="aq" d="M-364.323-2986.713l54.379,30.108a3.171,3.171,0,0,0,4.271-2.792v-59.393c0-1.881-1.8-3.709-3.611-4.662l-57.291-31.17c-1.558,1.558-1.049,3.218-1.049,5.1l-.314,58.149C-367.939-2989.492-366.585-2987.717-364.323-2986.713Z" transform="translate(367.939 3093.082)"></path><path class="bm" d="M-361.016-3034.949c-2.793-4.572-2.571-9.631.491-11.3s7.816.676,10.613,5.249,2.572,9.629-.491,11.3a4.409,4.409,0,0,1-1.607.5l.947,13.825-11.091-5.355,2.47-12.379A14.662,14.662,0,0,1-361.016-3034.949Z" transform="translate(384.946 3119.907)"></path><path class="bk" d="M-348.5-3063.312a18.185,18.185,0,0,1,7.192,1.505c11.941,4.969,21.655,20.752,21.655,35.184v25.387l-2.925,1.326-4.629-4.959v-24.519c0-10-6.563-20.939-14.636-24.382a12.19,12.19,0,0,0-4.66-1.041c-5.722.182-9.812,5.14-9.812,12.933v20.633l-.164-.089v.089l-2.762.853-3.722-4.483v-19.77C-362.963-3056.195-356.9-3063.431-348.5-3063.312Z" transform="translate(384.985 3063.313)"></path><path class="aq" d="M-349.157-3063.118a18.2,18.2,0,0,1,7.192,1.5c11.941,4.971,21.655,20.752,21.655,35.185v25.859l-1.067-.472-6.488-3.63V-3029.2c0-10-6.563-20.937-14.636-24.38a12.221,12.221,0,0,0-4.66-1.041c-5.722.181-9.812,5.137-9.812,12.932v20.632l-.164-.088v.088l-6.488-3.629v-19.769C-363.625-3056-357.553-3063.238-349.157-3063.118Z" transform="translate(382.717 3063.974)"></path></g></g></svg>